<?xml version="1.0" encoding="iso-8859-1"?>
<!-- Uploaded to: SVG Repo, www.svgrepo.com, Generator: SVG Repo Mixer Tools -->
<svg height="800px" width="800px" version="1.1" id="Layer_1" xmlns="http://www.w3.org/2000/svg" xmlns:xlink="http://www.w3.org/1999/xlink" 
	 viewBox="0 0 512 512" xml:space="preserve">
<circle style="fill:#FFDA44;" cx="256.523" cy="256.209" r="210.844"/>
<g>
	<path style="fill:#FF9811;" d="M395.793,473.606v14.568c-14.338,5.695-18.131,9.489-23.827,23.827h-14.568
		c-5.695-14.338-9.489-18.131-23.827-23.827v-14.568c14.338-5.695,18.131-9.489,23.827-23.827h14.568
		C377.662,464.117,381.455,467.91,395.793,473.606z"/>
	<path style="fill:#FF9811;" d="M388.854,38.394V23.827c14.338-5.695,18.131-9.489,23.827-23.827h14.568
		c5.695,14.338,9.489,18.131,23.827,23.827v14.568c-14.338,5.695-18.131,9.489-23.827,23.827h-14.568
		C406.985,47.883,403.192,44.09,388.854,38.394z"/>
	<path style="fill:#FF9811;" d="M436.507,91.126c14.338-5.695,18.131-9.489,23.827-23.827h14.568
		c5.695,14.338,9.489,18.131,23.827,23.827v14.568c-14.338,5.695-18.131,9.489-23.827,23.827h-14.568
		c-5.695-14.338-9.489-18.131-23.827-23.827V91.126z"/>
</g>
<g>
	<path style="fill:#933EC5;" d="M170.391,361.966c-0.888,0-1.839,0.031-2.999,0.104l-4.818,0.303l-2.435-4.18
		c-12.467-21.339-35.541-34.59-60.214-34.59c-38.415,0-69.672,31.246-69.672,69.672c0,2.738,0.178,5.476,0.491,8.193h186.015
		C213.175,379.104,193.748,361.966,170.391,361.966z"/>
	<path style="fill:#933EC5;" d="M476.542,305.461c0-48.552-39.502-88.064-88.064-88.064c-31.184,0-60.35,16.762-76.099,43.734
		l-2.435,4.18l-4.828-0.303c-1.474-0.094-2.686-0.136-3.825-0.136c-30.703,0-56.076,23.2-59.546,52.993h233.919
		C476.239,313.769,476.542,309.62,476.542,305.461z"/>
</g>
<g>
	<path style="fill:#FF9811;" d="M386.034,160.87c-8.108-20.402-13.874-26.168-34.277-34.277v-14.567
		c20.402-8.108,26.168-13.874,34.277-34.277H400.6c8.107,20.402,13.873,26.168,34.277,34.277v14.567
		c-20.403,8.108-26.17,13.874-34.277,34.277H386.034z"/>
	<path style="fill:#FF9811;" d="M61.553,165.677c-5.7-14.342-9.485-18.127-23.827-23.827v-14.567
		c14.341-5.699,18.127-9.484,23.827-23.827H76.12c5.699,14.342,9.485,18.128,23.827,23.827v14.567
		c-14.343,5.7-18.128,9.486-23.827,23.827H61.553z"/>
	<path style="fill:#FF9811;" d="M34.905,264.328c-8.108-20.402-13.874-26.169-34.277-34.277v-14.567
		c20.402-8.108,26.168-13.874,34.277-34.277h14.567c8.107,20.402,13.873,26.169,34.277,34.277v14.567
		c-20.403,8.108-26.17,13.874-34.277,34.277H34.905z"/>
	<path style="fill:#FF9811;" d="M309.747,467.064c-5.7-14.343-9.486-18.128-23.827-23.827V428.67
		c14.341-5.699,18.127-9.484,23.827-23.827h14.567c5.699,14.342,9.485,18.128,23.827,23.827v14.567
		c-14.342,5.699-18.128,9.485-23.827,23.827h-14.567V467.064z"/>
	<path style="fill:#FF9811;" d="M398.615,434.249h-14.568c-8.108-20.402-13.874-26.168-34.277-34.277v-14.567
		c20.402-8.107,26.169-13.873,34.277-34.277h14.567c8.108,20.403,13.874,26.17,34.277,34.277v14.567
		C412.488,408.081,406.722,413.847,398.615,434.249z"/>
</g>
<g>
	<path style="fill:#FFFFFF;" d="M225.684,104.938l-3.114-15.363c11.107-2.251,22.531-3.392,33.953-3.392v15.675
		C246.142,101.859,235.767,102.894,225.684,104.938z"/>
	<path style="fill:#FFFFFF;" d="M102.172,256.209H86.497c0-72.331,45.875-136.884,114.154-160.631l5.15,14.806
		C143.816,131.941,102.172,190.544,102.172,256.209z"/>
</g>
<path style="fill:#FF9811;" d="M123.773,170.757h-14.568c-5.695,14.338-9.489,18.131-23.827,23.827v14.568
	c14.338,5.695,18.131,9.489,23.827,23.827h14.568c5.695-14.338,9.489-18.131,23.827-23.827v-14.568
	C133.262,188.888,129.468,185.095,123.773,170.757z"/>
<path d="M511.509,333.541v-15.675H491.48c0.489-4.106,0.742-8.252,0.742-12.4c0-57.203-46.537-103.741-103.74-103.741
	c-35.16,0-68.128,18.074-87.158,47.468c-0.009,0-0.018,0-0.026,0c-39.36,0-71.781,30.22-75.314,68.674h-19.622v15.675h229.114
	c-6.171,14.271-14.025,27.727-23.458,40.179c-5.484-5.112-9.117-11.807-13.404-22.591h-14.567
	c-8.108,20.403-13.874,26.17-34.277,34.277v14.567c10.623,4.222,17.273,7.813,22.357,13.16c-7.77,5.736-15.928,10.863-24.417,15.365
	c-13.984-5.603-17.757-9.459-23.397-23.653h-14.567c-5.7,14.343-9.486,18.128-23.827,23.827v14.567
	c3.565,1.416,6.476,2.715,8.928,4.086c-12.564,2.503-25.4,3.783-38.325,3.783c-39.416,0-77.715-11.939-109.943-33.963h100.538
	v-15.675h-14.545c-3.672-30.777-29.732-54.78-61.388-55.176c-15.721-23.782-42.606-38.369-71.259-38.369
	c-47.062,0-85.349,38.288-85.349,85.348c0,2.739,0.14,5.476,0.4,8.197H0.491v15.675h120.248
	c37.924,32.024,86.029,49.639,135.783,49.639c17.079,0,34.023-2.051,50.46-6.094c0.906,1.87,1.808,3.971,2.763,6.375h14.567
	c2.619-6.591,4.836-10.949,7.857-14.292c17.26-6.645,33.522-15.52,48.477-26.453c1.118,2.377,2.235,4.998,3.401,7.93h14.567
	c8.108-20.402,13.874-26.168,34.277-34.277v-14.567c-2.799-1.112-5.313-2.18-7.605-3.248c11.197-14.971,20.293-31.269,27.142-48.617
	L511.509,333.541L511.509,333.541z M30.251,393.27c0-38.418,31.256-69.673,69.674-69.673c24.678,0,47.749,13.257,60.211,34.6
	l2.437,4.173l4.823-0.303c1.152-0.072,2.103-0.107,2.993-0.107c23.358,0,42.782,17.143,46.369,39.506H30.748
	C30.43,398.754,30.251,396.015,30.251,393.27z M317.03,446.785c-2.986-4.417-6.416-7.847-10.832-10.832
	c4.416-2.985,7.846-6.415,10.832-10.832c2.985,4.416,6.416,7.847,10.831,10.832C323.446,438.938,320.015,442.37,317.03,446.785z
	 M391.331,412.956c-5.22-9.008-11.257-15.046-20.267-20.267c9.007-5.219,15.048-11.258,20.267-20.266
	c5.219,9.008,11.259,15.047,20.267,20.266C402.588,397.909,396.551,403.947,391.331,412.956z M301.297,264.867
	c1.137,0,2.35,0.043,3.82,0.136l4.823,0.303l2.437-4.173c15.752-26.975,44.914-43.734,76.105-43.734
	c48.559,0,88.064,39.506,88.064,88.065c0,4.157-0.309,8.307-0.884,12.4H241.743C245.21,288.072,270.587,264.867,301.297,264.867z"/>
<path d="M412.682,62.22h14.567c5.699-14.341,9.484-18.127,23.827-23.827V23.827C436.733,18.128,432.947,14.342,427.248,0h-14.567
	c-5.7,14.343-9.486,18.128-23.827,23.827v14.567C403.196,44.093,406.982,47.878,412.682,62.22z M419.965,20.278
	c2.985,4.416,6.416,7.847,10.832,10.832c-4.417,2.986-7.847,6.416-10.832,10.832c-2.986-4.415-6.417-7.847-10.832-10.832
	C413.549,28.125,416.979,24.695,419.965,20.278z"/>
<path d="M436.508,105.694c14.342,5.699,18.128,9.485,23.827,23.827h14.567c5.699-14.342,9.485-18.128,23.827-23.827V91.126
	c-14.342-5.699-18.128-9.485-23.827-23.827h-14.568c-5.699,14.342-9.485,18.128-23.827,23.827v14.568H436.508z M467.618,87.579
	c2.985,4.415,6.416,7.846,10.831,10.831c-4.415,2.985-7.846,6.416-10.831,10.831c-2.985-4.415-6.416-7.846-10.831-10.831
	C461.201,95.425,464.633,91.994,467.618,87.579z"/>
<path d="M85.38,209.007c14.342,5.699,18.128,9.485,23.827,23.827h14.567c5.699-14.342,9.485-18.128,23.827-23.827v-14.567
	c-14.342-5.699-18.128-9.485-23.827-23.827h-14.568c-5.699,14.342-9.485,18.128-23.827,23.827v14.567H85.38z M116.489,190.893
	c2.985,4.415,6.416,7.846,10.831,10.831c-4.415,2.985-7.846,6.416-10.831,10.831c-2.985-4.415-6.416-7.846-10.831-10.831
	C110.073,198.739,113.504,195.308,116.489,190.893z"/>
<path d="M34.905,264.328h11.219c0.525,13.759,2.362,27.42,5.52,40.716l15.251-3.623c-3.497-14.722-5.269-29.933-5.269-45.213
	c0-4.573,0.17-9.182,0.487-13.739c4.991-4.946,11.51-8.395,21.636-12.419v-14.566c-6.729-2.674-11.86-5.096-16.014-7.87
	c6.008-23.447,16.244-45.297,30.454-65.051c0.57-0.235,1.152-0.472,1.758-0.713v-4.008l1.095,0.829
	c17.803-23.512,41.068-42.984,67.283-56.31c27.475-13.968,57.149-21.051,88.198-21.051c41.948,0,83.017,13.677,116.504,38.649
	c-4.944,4.757-11.388,8.14-21.269,12.067v14.567c20.402,8.108,26.168,13.874,34.277,34.277h14.567
	c3.928-9.886,7.311-16.331,12.072-21.276c15.646,20.949,27.092,45.128,33.236,70.393l15.232-3.705
	c-6.597-27.126-18.847-53.09-35.579-75.622c2.732-1.344,5.803-2.671,9.315-4.067v-14.567c-20.403-8.108-26.17-13.874-34.277-34.277
	h-14.567c-1.396,3.514-2.724,6.586-4.068,9.318c-36.105-26.776-80.305-41.432-125.444-41.432c-33.542,0-65.606,7.655-95.302,22.752
	c-26.37,13.407-49.971,32.571-68.621,55.65c-8.559-4.358-11.906-9.069-16.48-20.581H61.553c-5.7,14.343-9.486,18.128-23.827,23.827
	v14.567c14.342,5.7,18.127,9.485,23.827,23.827h4.794c-4.35,9.122-8.035,18.545-11.027,28.245c-1.977-3.514-3.84-7.665-5.848-12.715
	H34.905c-8.108,20.402-13.874,26.169-34.277,34.277v14.567C21.03,238.159,26.797,243.926,34.905,264.328z M413.584,119.311
	c-9.008,5.219-15.047,11.259-20.266,20.267c-5.22-9.009-11.258-15.046-20.267-20.267c9.008-5.22,15.046-11.257,20.267-20.267
	C398.536,108.052,404.576,114.092,413.584,119.311z M58.004,134.568c4.416-2.985,7.846-6.415,10.832-10.832
	c2.985,4.416,6.416,7.847,10.832,10.832c-4.417,2.986-7.847,6.416-10.832,10.832C65.851,140.984,62.419,137.553,58.004,134.568z
	 M42.188,202.501c5.219,9.007,11.258,15.048,20.267,20.267c-9.008,5.219-15.047,11.259-20.267,20.267
	c-5.22-9.009-11.258-15.046-20.267-20.267C30.93,217.548,36.968,211.511,42.188,202.501z"/>
<path d="M371.967,449.78h-14.568c-5.699,14.342-9.485,18.128-23.827,23.827v14.567c14.342,5.699,18.128,9.485,23.827,23.827h14.567
	c5.699-14.342,9.485-18.128,23.827-23.827v-14.568C381.451,467.907,377.665,464.121,371.967,449.78z M364.683,491.72
	c-2.985-4.415-6.416-7.846-10.831-10.831c4.415-2.985,7.846-6.416,10.831-10.831c2.985,4.415,6.416,7.846,10.831,10.831
	C371.099,483.874,367.667,487.306,364.683,491.72z"/>
<path d="M383.768,227.888l0.496,15.667c0.627-0.02,1.257-0.03,1.89-0.03c6.277,0,12.442,1.017,18.325,3.021l5.056-14.838
	c-7.513-2.559-15.38-3.857-23.38-3.857C385.355,227.849,384.56,227.863,383.768,227.888z"/>
<path d="M427.12,240.538l-8.874,12.922c15.452,10.61,24.676,28.119,24.676,46.834h15.675
	C458.597,276.411,446.829,254.073,427.12,240.538z"/>
<path d="M81.501,338.365l5.056,14.838c4.373-1.49,9.027-2.167,13.66-2.02l0.505-15.667c-0.591-0.019-1.185-0.029-1.781-0.029
	C92.972,335.487,87.105,336.456,81.501,338.365z"/>
<path d="M44.905,389.522H60.58c0-12.647,6.234-24.478,16.674-31.648l-8.872-12.922C53.681,355.048,44.905,371.708,44.905,389.522z"
	/>
</svg>