<svg xmlns="http://www.w3.org/2000/svg" version="1.1" xmlns:xlink="http://www.w3.org/1999/xlink" xmlns:svgjs="http://svgjs.dev/svgjs" width="2000" height="1250" viewBox="0 0 2000 1250"><g transform="matrix(1,0,0,1,0,0)"><svg viewBox="0 0 512 320" data-background-color="#000000" preserveAspectRatio="xMidYMid meet" height="1250" width="2000" xmlns="http://www.w3.org/2000/svg" xmlns:xlink="http://www.w3.org/1999/xlink"><g id="tight-bounds" transform="matrix(1,0,0,1,0,0)"><svg viewBox="0 0 512 320" height="320" width="512"><g><svg></svg></g><g><svg viewBox="0 0 512 320" height="320" width="512"><g><path d="M96 160c0-88.366 71.634-160 160-160 88.366 0 160 71.634 160 160 0 88.366-71.634 160-160 160-88.366 0-160-71.634-160-160zM256 317.799c87.15 0 157.799-70.649 157.799-157.799 0-87.15-70.649-157.799-157.799-157.799-87.15 0-157.799 70.649-157.799 157.799 0 87.15 70.649 157.799 157.799 157.799z" fill="#fffffc" fill-rule="nonzero" stroke="none" stroke-width="1" stroke-linecap="butt" stroke-linejoin="miter" stroke-miterlimit="10" stroke-dasharray="" stroke-dashoffset="0" font-family="none" font-weight="none" font-size="none" text-anchor="none" style="mix-blend-mode: normal" data-fill-palette-color="tertiary"></path></g><g transform="matrix(1,0,0,1,116,20)"><svg viewBox="0 0 280 280" height="280" width="280"><g><svg viewBox="0 0 280 280" height="280" width="280"><g><svg viewBox="0 0 280 280" height="280" width="280"><g id="textblocktransform"><svg viewBox="0 0 280 280" height="280" width="280" id="textblock"><g><svg viewBox="0 0 280 280" height="280" width="280"><g transform="matrix(1,0,0,1,57.50420886156945,57.50420886156945)"><svg viewBox="0 0 164.9915822768611 164.9915822768611" height="164.9915822768611" width="164.9915822768611"><g><circle r="82" cx="82.49579113843055" cy="82.49579113843055" fill="#000000" data-fill-palette-color="accent"></circle><svg xmlns="http://www.w3.org/2000/svg" xmlns:xlink="http://www.w3.org/1999/xlink" version="1.1" x="24.74873734152917" y="24.748737341529164" viewBox="0 0 100 100" style="enable-background:new 0 0 100 100;" xml:space="preserve" height="115.49410759380275" width="115.49410759380275" class="icon-kg-0" data-fill-palette-color="quaternary" id="kg-0"><path d="M18.42 28.589c2.649 27.997 25 50.342 52.991 52.979-5.97 3.784-12.976 5.933-20.312 5.933C29.81 87.5 12.5 70.19 12.5 48.896 12.5 41.559 14.648 34.559 18.42 28.589M37.012 0C15.686 6.152 0 25.592 0 48.896 0 77.124 22.876 100 51.099 100 74.402 100 93.848 84.302 100 62.988c-6.812 3.931-14.6 6.348-23.022 6.348-25.586 0-46.313-20.746-46.313-46.319C30.664 14.594 33.081 6.806 37.012 0L37.012 0z" fill="#ffcd75" data-fill-palette-color="quaternary"></path></svg></g></svg></g><g><path d="M33.796 103.525l-4.406 10.314-2.882-1.232 0.642-2.972-18.778-8.022-1.703 2.518-2.901-1.239 1.173-2.745 2.986-6.991 21.289 0.524 0.043-0.101-15.19-14.8 4.179-9.782 2.901 1.239-0.65 2.991 18.778 8.022 1.711-2.537 2.883 1.231-4.406 10.314-2.883-1.232 0.709-3.127-5.436-2.323-11.361-4.94-0.049 0.087 16.441 16.255-1.513 3.541-23.077-0.39-0.029 0.117 10.965 4.349 5.857 2.502 1.825-2.802z" fill="#ffffff" data-fill-palette-color="primary"></path><path d="M57.284 64.947v0c-1.256 1.377-2.649 2.392-4.178 3.044-1.538 0.653-3.147 0.955-4.826 0.905-1.669-0.05-3.338-0.436-5.005-1.158-1.658-0.722-3.247-1.776-4.766-3.162v0l-0.308-0.282c-1.51-1.377-2.702-2.86-3.579-4.449-0.867-1.59-1.404-3.216-1.611-4.878-0.198-1.663-0.048-3.29 0.452-4.881 0.5-1.582 1.379-3.062 2.635-4.439v0c1.283-1.407 2.696-2.439 4.239-3.097 1.543-0.648 3.154-0.953 4.832-0.912 1.679 0.05 3.347 0.436 5.005 1.158 1.658 0.732 3.242 1.786 4.752 3.163v0l0.309 0.282c1.519 1.386 2.717 2.869 3.592 4.448 0.876 1.589 1.415 3.213 1.619 4.871 0.203 1.667 0.048 3.299-0.466 4.896-0.523 1.597-1.422 3.094-2.696 4.491zM54.263 62.19v0c1.1-1.206 1.703-2.487 1.809-3.844 0.102-1.352-0.224-2.732-0.979-4.139-0.755-1.407-1.872-2.786-3.352-4.136v0l-0.338-0.309c-1.461-1.332-2.923-2.303-4.389-2.912-1.465-0.609-2.871-0.8-4.217-0.574-1.351 0.231-2.572 0.945-3.663 2.141v0c-1.064 1.166-1.645 2.423-1.743 3.771-0.093 1.343 0.233 2.713 0.978 4.111 0.745 1.398 1.853 2.768 3.323 4.109v0l0.338 0.308c1.47 1.341 2.943 2.326 4.418 2.953 1.475 0.627 2.879 0.83 4.212 0.61 1.337-0.226 2.538-0.922 3.603-2.089z" fill="#ffffff" data-fill-palette-color="primary"></path><path d="M83.335 44.16v0c-1.601 0.955-3.228 1.523-4.88 1.706-1.662 0.18-3.289 0.003-4.881-0.53-1.583-0.531-3.069-1.383-4.457-2.556-1.378-1.171-2.594-2.64-3.647-4.406v0l-0.214-0.359c-1.047-1.755-1.759-3.52-2.138-5.294-0.37-1.772-0.414-3.484-0.132-5.136 0.291-1.649 0.906-3.163 1.845-4.541 0.937-1.37 2.205-2.532 3.806-3.487v0c1.635-0.975 3.286-1.555 4.954-1.738 1.665-0.174 3.295 0.001 4.89 0.525 1.593 0.533 3.078 1.385 4.456 2.556 1.376 1.18 2.587 2.647 3.634 4.402v0l0.214 0.359c1.053 1.766 1.771 3.532 2.152 5.298 0.379 1.775 0.425 3.485 0.14 5.13-0.288 1.655-0.908 3.172-1.862 4.552-0.963 1.378-2.256 2.551-3.88 3.519zM81.24 40.648v0c1.402-0.836 2.35-1.888 2.845-3.157 0.489-1.265 0.576-2.68 0.26-4.245-0.316-1.565-0.987-3.208-2.013-4.929v0l-0.234-0.393c-1.013-1.698-2.132-3.05-3.359-4.057-1.226-1.007-2.516-1.597-3.871-1.77-1.36-0.17-2.736 0.16-4.125 0.989v0c-1.356 0.809-2.276 1.844-2.76 3.106-0.478 1.258-0.562 2.664-0.253 4.218 0.309 1.554 0.973 3.185 1.992 4.895v0l0.235 0.393c1.019 1.709 2.145 3.078 3.375 4.104 1.231 1.027 2.516 1.628 3.856 1.802 1.345 0.171 2.696-0.148 4.052-0.957z" fill="#ffffff" data-fill-palette-color="primary"></path><path d="M112.402 32.04l-10.91 2.6-0.726-3.05 2.77-1.253-4.733-19.864-3.038 0.131-0.731-3.069 2.904-0.692 5.14-1.224 16.714 16.394 0.102-0.044-3.725-15.634-3.571 0.258-0.731-3.069 7.986-1.903 2.924-0.696 0.731 3.068-2.79 1.258 5.594 23.474-4.859 1.158-16.946-16.206-0.112 0.047 3.7 15.526 3.58-0.259z" fill="#ffffff" data-fill-palette-color="primary"></path><path d="M150.771 28.651l-13.587-0.841 0.194-3.129 3.035-0.39 1.262-20.381-2.964-0.762 0.195-3.148 3 0.186 9.286 0.575c3.198 0.198 5.655 0.985 7.371 2.36 1.716 1.382 2.495 3.338 2.339 5.868v0c-0.079 1.278-0.504 2.398-1.275 3.361-0.771 0.963-1.814 1.652-3.129 2.069v0c1.091 0.307 1.995 0.795 2.711 1.464 0.709 0.675 1.232 1.469 1.567 2.381 0.335 0.918 0.47 1.904 0.406 2.956v0c-0.163 2.635-1.158 4.581-2.984 5.837-1.819 1.257-4.295 1.788-7.427 1.594zM146.149 15.862l-0.524 8.462 5.393 0.334c1.523 0.094 2.713-0.178 3.57-0.816 0.85-0.639 1.317-1.62 1.399-2.944v0c0.058-0.94-0.045-1.748-0.309-2.422-0.257-0.674-0.69-1.203-1.297-1.586-0.608-0.383-1.402-0.605-2.382-0.665v0zM146.852 4.52l-0.476 7.677 4.45 0.276c1.47 0.091 2.629-0.163 3.477-0.762 0.848-0.599 1.309-1.504 1.384-2.716v0c0.083-1.338-0.277-2.35-1.078-3.038-0.802-0.688-2.023-1.082-3.665-1.184v0z" fill="#ffffff" data-fill-palette-color="primary"></path><path d="M181.074 36.27v0c-2.021-0.75-3.669-1.764-4.942-3.043-1.279-1.281-2.096-2.762-2.449-4.443-0.362-1.677-0.185-3.479 0.531-5.407v0l5.157-13.901-2.599-1.58 1.098-2.957 10.496 3.893-1.098 2.958-3.009-0.501-5.157 13.902c-0.441 1.188-0.59 2.258-0.447 3.209 0.142 0.951 0.542 1.772 1.199 2.461 0.655 0.696 1.526 1.245 2.614 1.649v0c1.107 0.411 2.141 0.571 3.101 0.482 0.958-0.083 1.801-0.439 2.53-1.067 0.728-0.628 1.315-1.543 1.76-2.744v0l5.158-13.901-2.617-1.586 1.097-2.958 10.515 3.901-1.098 2.957-3.018-0.504-5.157 13.901c-0.72 1.941-1.761 3.43-3.122 4.468-1.361 1.038-2.948 1.623-4.76 1.758-1.803 0.131-3.731-0.185-5.783-0.947z" fill="#ffffff" data-fill-palette-color="primary"></path><path d="M211.419 53.107v0c-2.191-1.634-3.733-3.5-4.626-5.598-0.893-2.098-1.143-4.299-0.748-6.603 0.404-2.306 1.445-4.583 3.122-6.833v0l0.488-0.654c1.618-2.17 3.464-3.785 5.538-4.846 2.083-1.062 4.254-1.499 6.514-1.311 2.261 0.197 4.461 1.093 6.599 2.687v0c1.5 1.118 2.74 2.379 3.722 3.782 0.972 1.404 1.64 2.895 2.002 4.472v0l-3.932 5.273-3.143-2.344 2.121-3.743c-0.153-0.494-0.367-0.978-0.645-1.45-0.273-0.477-0.613-0.937-1.018-1.38-0.407-0.453-0.887-0.885-1.441-1.298v0c-1.308-0.976-2.67-1.486-4.084-1.531-1.418-0.04-2.813 0.343-4.184 1.149-1.371 0.806-2.656 2.013-3.853 3.619v0l-0.512 0.686c-1.214 1.627-2.002 3.228-2.365 4.803-0.363 1.575-0.299 3.042 0.193 4.402 0.483 1.361 1.394 2.542 2.734 3.541v0c0.665 0.496 1.38 0.913 2.144 1.252 0.765 0.339 1.494 0.576 2.188 0.713v0l2.796-2.818 3.119 2.326-3.902 5.233c-1.282-0.079-2.695-0.404-4.238-0.976-1.549-0.576-3.078-1.427-4.589-2.553z" fill="#ffffff" data-fill-palette-color="primary"></path><path d="M258.656 69.364l-23.626-3.154 0.898-4.021 19.462 2.449 0.082-0.024-1.347-2.235 2.535-1.878 6.504 8.78-2.534 1.878zM231.642 73.538l-6.611-8.924 2.518-1.866 2.253 2.072 16.408-12.156-1.326-2.758 2.535-1.878 6.611 8.923-2.535 1.878-2.187-1.983-16.408 12.155 1.26 2.671zM241.368 86.667l-6.735-9.091 2.519-1.866 1.716 1.898 0.016-0.011 3.701-11.721 4.855 0.602-4.774 15.872 1.221 2.451z" fill="#ffffff" data-fill-palette-color="primary"></path><path d="M248.298 104.437v0c-0.696-1.85-1.119-3.637-1.271-5.358-0.151-1.722 0.013-3.52 0.492-5.395v0l6.166-2.318 1.415 3.763-3.584 2.007c-0.234 0.754-0.311 1.651-0.231 2.691 0.079 1.04 0.326 2.11 0.738 3.21v0c0.376 1 0.833 1.792 1.372 2.375 0.536 0.578 1.133 0.949 1.79 1.114 0.651 0.166 1.324 0.119 2.02-0.143v0c0.671-0.252 1.197-0.634 1.578-1.146 0.388-0.514 0.649-1.215 0.783-2.102 0.138-0.895 0.155-2.039 0.05-3.431v0c-0.189-2.218-0.177-4.129 0.034-5.733 0.212-1.604 0.699-2.928 1.462-3.973 0.756-1.043 1.833-1.827 3.23-2.352v0c1.397-0.525 2.784-0.607 4.16-0.245 1.37 0.364 2.622 1.112 3.757 2.244 1.137 1.139 2.042 2.595 2.716 4.369v0c0.77 1.972 1.186 3.814 1.249 5.526 0.054 1.709-0.151 3.264-0.617 4.665v0l-5.738 2.158-1.38-3.67 3.357-2.017c0.143-0.6 0.181-1.329 0.112-2.189-0.062-0.863-0.285-1.803-0.668-2.822v0c-0.327-0.869-0.753-1.588-1.278-2.156-0.519-0.57-1.108-0.948-1.765-1.133-0.654-0.194-1.341-0.155-2.062 0.116v0c-0.621 0.233-1.101 0.605-1.441 1.116-0.34 0.51-0.557 1.233-0.651 2.169-0.101 0.938-0.106 2.159-0.016 3.663v0c0.298 3.148 0.065 5.706-0.698 7.673-0.767 1.975-2.2 3.357-4.299 4.146v0c-1.459 0.549-2.879 0.629-4.258 0.24-1.379-0.389-2.632-1.186-3.759-2.392-1.127-1.206-2.049-2.763-2.765-4.67z" fill="#ffffff" data-fill-palette-color="primary"></path><path d="M14.723 191.842l-4.491-10.45 2.926-1.257 1.725 2.552 19.035-8.18-0.664-3.007 2.944-1.265 1.194 2.779 3.041 7.077-15.282 15.274 0.047 0.11 21.497-0.811 4.263 9.92-2.944 1.265-1.737-2.579-19.035 8.179 0.676 3.035-2.926 1.257-4.49-10.45 2.926-1.257 1.791 2.707 5.513-2.369 11.57-4.885-0.021-0.099-23.444 0.694-1.54-3.584 16.429-16.666-0.066-0.102-10.859 5.002-5.942 2.553 0.789 3.3z" fill="#ffffff" data-fill-palette-color="primary"></path><path d="M41.515 236.875v0c-1.277-1.394-2.177-2.896-2.698-4.506-0.516-1.614-0.674-3.265-0.474-4.951 0.2-1.686 0.74-3.337 1.618-4.951 0.888-1.614 2.099-3.125 3.635-4.532v0l0.308-0.282c1.531-1.403 3.137-2.474 4.817-3.213 1.685-0.734 3.376-1.127 5.073-1.18 1.697-0.053 3.328 0.244 4.892 0.89 1.559 0.65 2.977 1.673 4.253 3.067v0c1.3 1.418 2.212 2.94 2.738 4.563 0.516 1.624 0.674 3.279 0.473 4.965-0.196 1.691-0.735 3.342-1.617 4.952-0.883 1.61-2.089 3.116-3.621 4.518v0l-0.308 0.282c-1.536 1.407-3.146 2.483-4.832 3.226-1.68 0.739-3.369 1.135-5.066 1.188-1.693 0.058-3.328-0.249-4.904-0.919-1.567-0.669-2.996-1.709-4.287-3.117zM44.574 234.071v0c1.116 1.218 2.354 1.941 3.716 2.17 1.361 0.229 2.786 0.025 4.273-0.609 1.488-0.635 2.983-1.64 4.485-3.016v0l0.337-0.309c1.482-1.358 2.597-2.748 3.345-4.171 0.748-1.423 1.067-2.827 0.959-4.213-0.104-1.38-0.712-2.677-1.824-3.89v0c-1.085-1.184-2.303-1.885-3.655-2.103-1.352-0.219-2.767-0.015-4.245 0.61-1.478 0.626-2.963 1.622-4.455 2.989v0l-0.338 0.309c-1.492 1.367-2.621 2.766-3.388 4.198-0.767 1.431-1.098 2.833-0.993 4.204 0.104 1.371 0.699 2.648 1.783 3.831z" fill="#ffffff" data-fill-palette-color="primary"></path><path d="M72.468 261.555v0c-1.625-0.966-2.92-2.144-3.884-3.534-0.961-1.396-1.588-2.931-1.884-4.603-0.295-1.672-0.255-3.408 0.119-5.208 0.384-1.802 1.107-3.598 2.172-5.388v0l0.213-0.36c1.061-1.785 2.289-3.274 3.684-4.466 1.401-1.189 2.907-2.054 4.517-2.595 1.61-0.541 3.256-0.727 4.939-0.561 1.68 0.172 3.333 0.742 4.959 1.707v0c1.654 0.983 2.967 2.176 3.939 3.579 0.963 1.405 1.592 2.944 1.887 4.617 0.301 1.676 0.261 3.412-0.119 5.207-0.38 1.796-1.101 3.586-2.161 5.372v0l-0.214 0.359c-1.064 1.791-2.295 3.285-3.694 4.484-1.395 1.193-2.898 2.059-4.508 2.6-1.604 0.544-3.258 0.723-4.96 0.537-1.694-0.188-3.362-0.77-5.005-1.747zM74.588 257.988v0c1.42 0.844 2.815 1.178 4.183 1.004 1.369-0.174 2.674-0.78 3.916-1.817 1.241-1.037 2.382-2.431 3.422-4.183v0l0.234-0.393c1.027-1.728 1.693-3.381 1.998-4.96 0.305-1.578 0.205-3.015-0.299-4.309-0.498-1.291-1.455-2.357-2.869-3.198v0c-1.38-0.82-2.749-1.139-4.107-0.959-1.358 0.181-2.654 0.785-3.888 1.811-1.235 1.026-2.369 2.409-3.402 4.148v0l-0.234 0.394c-1.033 1.74-1.711 3.405-2.031 4.997-0.321 1.592-0.233 3.029 0.262 4.311 0.496 1.282 1.434 2.334 2.815 3.154z" fill="#ffffff" data-fill-palette-color="primary"></path><path d="M107.727 275.263l-11.068-2.622 0.734-3.098 3.077 0.135 4.776-20.16-2.811-1.259 0.739-3.118 2.944 0.698 5.219 1.236 7.652 22.481 0.12 0.008 3.76-15.871-3.362-1.389 0.738-3.118 8.105 1.92 2.963 0.702-0.739 3.118-3.096-0.141-5.643 23.821-4.929-1.168-7.954-22.409-0.121-0.008-3.733 15.754 3.363 1.39z" fill="#ffffff" data-fill-palette-color="primary"></path><path d="M152.22 279.135l-13.775 0.865-0.2-3.178 3.003-0.767-1.298-20.677-3.075-0.386-0.201-3.197 3.039-0.191 9.415-0.591c3.244-0.204 5.817 0.28 7.719 1.449 1.901 1.17 2.933 3.04 3.094 5.609v0c0.081 1.291-0.204 2.469-0.855 3.534-0.657 1.072-1.622 1.9-2.895 2.485v0c1.141 0.174 2.112 0.552 2.912 1.133 0.801 0.588 1.429 1.319 1.883 2.195 0.448 0.883 0.705 1.86 0.772 2.933v0c0.168 2.675-0.585 4.756-2.26 6.243-1.674 1.494-4.101 2.341-7.278 2.541zM145.964 266.845l0.539 8.581 5.462-0.343c1.549-0.097 2.713-0.519 3.49-1.266 0.777-0.747 1.124-1.792 1.04-3.136v0c-0.06-0.96-0.263-1.762-0.61-2.405-0.346-0.643-0.851-1.12-1.516-1.43-0.658-0.311-1.483-0.435-2.476-0.373v0zM145.242 255.345l0.489 7.786 4.509-0.283c1.49-0.094 2.621-0.497 3.394-1.21 0.78-0.707 1.131-1.676 1.054-2.908v0c-0.085-1.351-0.571-2.324-1.46-2.92-0.894-0.589-2.176-0.831-3.844-0.725v0z" fill="#ffffff" data-fill-palette-color="primary"></path><path d="M188.658 270.995v0c-2.052 0.762-3.99 1.071-5.812 0.927-1.829-0.142-3.438-0.74-4.828-1.795-1.381-1.051-2.434-2.553-3.16-4.506v0l-5.238-14.104-3.037 0.512-1.116-3.004 10.644-3.953 1.116 3.004-2.654 1.601 5.239 14.105c0.446 1.2 1.038 2.12 1.778 2.757 0.74 0.638 1.591 1.005 2.553 1.101 0.956 0.098 1.988-0.059 3.095-0.47v0c1.126-0.418 2.029-0.977 2.71-1.676 0.675-0.697 1.088-1.529 1.238-2.498 0.144-0.966-0.01-2.056-0.46-3.268v0l-5.239-14.105-3.055 0.52-1.116-3.004 10.663-3.96 1.115 3.003-2.663 1.605 5.239 14.105c0.73 1.965 0.915 3.797 0.555 5.494-0.358 1.704-1.188 3.205-2.49 4.502-1.302 1.297-2.994 2.333-5.077 3.107z" fill="#ffffff" data-fill-palette-color="primary"></path><path d="M224.367 251.24v0c-2.218 1.653-4.479 2.611-6.783 2.872-2.295 0.263-4.505-0.133-6.632-1.188-2.126-1.054-4.04-2.722-5.741-5.004v0l-0.5-0.67c-1.638-2.197-2.671-4.459-3.099-6.787-0.428-2.328-0.223-4.567 0.617-6.716 0.838-2.139 2.342-4.017 4.512-5.635v0c1.526-1.138 3.111-1.976 4.754-2.514 1.648-0.542 3.292-0.762 4.932-0.66v0l3.99 5.353-3.191 2.379-3.018-3.149c-0.532 0.008-1.068 0.077-1.608 0.206-0.54 0.13-1.086 0.325-1.636 0.587-0.551 0.27-1.106 0.614-1.665 1.03v0c-1.33 0.991-2.224 2.167-2.683 3.527-0.45 1.361-0.481 2.829-0.094 4.402 0.388 1.564 1.189 3.16 2.402 4.787v0l0.523 0.702c1.229 1.649 2.555 2.878 3.978 3.688 1.432 0.811 2.877 1.173 4.336 1.087 1.462-0.081 2.874-0.629 4.236-1.644v0c0.675-0.504 1.287-1.076 1.836-1.716 0.554-0.645 0.998-1.286 1.333-1.925v0l-1.933-3.524 3.16-2.355 3.955 5.305c-0.444 1.225-1.166 2.504-2.167 3.837-1.006 1.337-2.277 2.579-3.814 3.725z" fill="#ffffff" data-fill-palette-color="primary"></path><path d="M236.297 200.984l3.901 23.849-4.172 0.312-3.358-19.605-0.04-0.079-1.772 1.969-2.573-1.909 6.606-8.903 2.573 1.91zM248.304 225.966l-6.707 9.038-2.557-1.898 1.351-2.789-16.638-12.346-2.278 2.101-2.573-1.909 6.707-9.038 2.573 1.909-1.28 2.694 16.638 12.346 2.207-2.006zM258.183 212.652l-6.837 9.214-2.557-1.898 1.342-2.225-0.016-0.012-12.468-0.132-0.845-4.889 16.802-0.048 2.022-1.907z" fill="#ffffff" data-fill-palette-color="primary"></path><path d="M268.501 190.348v0c-0.708 1.874-1.581 3.519-2.619 4.936-1.036 1.41-2.365 2.667-3.987 3.77v0l-6.247-2.36 1.442-3.816 4.062 0.875c0.69-0.42 1.352-1.053 1.983-1.9 0.638-0.844 1.167-1.822 1.587-2.932v0c0.384-1.018 0.565-1.928 0.542-2.732-0.017-0.801-0.22-1.484-0.609-2.049-0.392-0.559-0.938-0.971-1.639-1.236v0c-0.676-0.255-1.333-0.319-1.971-0.191-0.639 0.134-1.311 0.494-2.014 1.08-0.697 0.588-1.472 1.447-2.325 2.579v0c-1.337 1.814-2.626 3.263-3.865 4.348-1.237 1.079-2.494 1.76-3.771 2.043-1.28 0.29-2.627 0.167-4.042-0.367v0c-1.415-0.534-2.524-1.4-3.327-2.597-0.797-1.194-1.251-2.603-1.361-4.226-0.102-1.627 0.181-3.343 0.848-5.147v0c0.735-2.02 1.653-3.701 2.756-5.044 1.1-1.336 2.297-2.384 3.591-3.143v0l5.809 2.194-1.406 3.724-3.903-0.708c-0.506 0.362-1.022 0.894-1.549 1.595-0.527 0.701-0.984 1.564-1.371 2.589v0c-0.335 0.887-0.497 1.72-0.486 2.497 0.018 0.78 0.213 1.463 0.587 2.051 0.376 0.582 0.927 1.01 1.653 1.284v0c0.633 0.239 1.25 0.277 1.851 0.114 0.598-0.157 1.247-0.561 1.946-1.212 0.7-0.651 1.521-1.578 2.466-2.781v0c1.874-2.597 3.764-4.39 5.669-5.379 1.905-0.989 3.922-1.082 6.051-0.278v0c1.477 0.558 2.609 1.446 3.397 2.665 0.796 1.215 1.218 2.662 1.265 4.339 0.056 1.673-0.282 3.478-1.013 5.415z" fill="#ffffff" data-fill-palette-color="primary"></path><path d="M12.048 143.5c0-1.789 1.45-3.239 3.239-3.238 1.789 0 3.239 1.45 3.239 3.238 0 1.789-1.45 3.239-3.239 3.239-1.789 0-3.239-1.45-3.239-3.239z" fill="#ffffff" data-fill-palette-color="primary"></path><path d="M262.82 143.5c0-1.789 1.45-3.239 3.239-3.238 1.789 0 3.239 1.45 3.238 3.238 0 1.789-1.45 3.239-3.238 3.239-1.789 0-3.239-1.45-3.239-3.239z" fill="#ffffff" data-fill-palette-color="primary"></path></g></svg></g></svg></g></svg></g><g></g></svg></g></svg></g></svg></g><defs></defs></svg><rect width="512" height="320" fill="none" stroke="none" visibility="hidden"></rect></g></svg></g></svg>